<svg width="14" height="14" viewBox="0 0 14 14" fill="none" xmlns="http://www.w3.org/2000/svg">
<path d="M7.00018 3.52734C4.79491 3.52734 3.18026 4.6457 2.04139 7C3.18026 9.3543 4.79491 10.4727 7.00018 10.4727C9.20682 10.4727 10.8215 9.3543 11.959 7C10.8201 4.6457 9.20546 3.52734 7.00018 3.52734ZM6.9455 9.40625C5.61659 9.40625 4.53925 8.32891 4.53925 7C4.53925 5.67109 5.61659 4.59375 6.9455 4.59375C8.2744 4.59375 9.35175 5.67109 9.35175 7C9.35175 8.32891 8.2744 9.40625 6.9455 9.40625Z" fill="#E6F7FF"/>
<path d="M12.8818 6.64727C11.5857 3.91699 9.62651 2.54297 7.00014 2.54297C4.37241 2.54297 2.41459 3.91699 1.1185 6.64863C1.06651 6.75871 1.03955 6.87894 1.03955 7.00068C1.03955 7.12242 1.06651 7.24265 1.1185 7.35273C2.41459 10.083 4.37377 11.457 7.00014 11.457C9.62787 11.457 11.5857 10.083 12.8818 7.35137C12.9871 7.12988 12.9871 6.87285 12.8818 6.64727ZM7.00014 10.4727C4.79487 10.4727 3.18022 9.3543 2.04135 7C3.18022 4.6457 4.79487 3.52734 7.00014 3.52734C9.20541 3.52734 10.8201 4.6457 11.9589 7C10.8214 9.3543 9.20678 10.4727 7.00014 10.4727Z" fill="#1890FF"/>
<path d="M6.94542 4.59375C5.61651 4.59375 4.53917 5.67109 4.53917 7C4.53917 8.32891 5.61651 9.40625 6.94542 9.40625C8.27433 9.40625 9.35167 8.32891 9.35167 7C9.35167 5.67109 8.27433 4.59375 6.94542 4.59375ZM6.94542 8.53125C6.09913 8.53125 5.41417 7.84629 5.41417 7C5.41417 6.15371 6.09913 5.46875 6.94542 5.46875C7.79171 5.46875 8.47667 6.15371 8.47667 7C8.47667 7.84629 7.79171 8.53125 6.94542 8.53125Z" fill="#1890FF"/>
</svg>
